<?xml version="1.0" standalone="no"?><!DOCTYPE svg PUBLIC "-//W3C//DTD SVG 1.1//EN" "http://www.w3.org/Graphics/SVG/1.1/DTD/svg11.dtd"><svg t="1770215167751" class="icon" viewBox="0 0 1024 1024" version="1.1" xmlns="http://www.w3.org/2000/svg" p-id="5050" xmlns:xlink="http://www.w3.org/1999/xlink" width="200" height="200"><path d="M96 640a32 32 0 0 1 32 32V768a128 128 0 0 0 118.4 127.68L256 896h512a128 128 0 0 0 127.68-118.4L896 768v-32a32 32 0 1 1 64 0v32a192 192 0 0 1-192 192H256a192 192 0 0 1-192-192v-96a32 32 0 0 1 32-32z m284.224-576a128 128 0 0 1 106.752 57.344l70.144 105.984A64 64 0 0 0 610.496 256H768A192 192 0 0 1 960 448v96a32 32 0 0 1-63.488 5.76L896 544V448a128 128 0 0 0-118.4-127.68L768 320H610.56a128 128 0 0 1-100.48-48.64l-6.272-8.704-70.144-105.984a64 64 0 0 0-45.44-28.16L380.288 128H256a128 128 0 0 0-127.68 118.4L128 256v96a32 32 0 0 1-64 0V256a192 192 0 0 1 192-192h124.224zM96 464a48 48 0 1 1 0 96 48 48 0 0 1 0-96z" p-id="5051"></path></svg>