<?xml version="1.0" standalone="no"?><!DOCTYPE svg PUBLIC "-//W3C//DTD SVG 1.1//EN" "http://www.w3.org/Graphics/SVG/1.1/DTD/svg11.dtd"><svg t="1769397010088" class="icon" viewBox="0 0 1024 1024" version="1.1" xmlns="http://www.w3.org/2000/svg" p-id="3586" xmlns:xlink="http://www.w3.org/1999/xlink" width="200" height="200"><path d="M717.852226 562.402364a310.101069 310.101069 0 0 1-413.235806 1.951198A607.379981 607.379981 0 0 0 186.150843 898.426489a36.515272 36.515272 0 0 0 0 3.902395 131.287733 131.287733 0 0 0 130.451506 121.671116h390.239547a131.287733 131.287733 0 0 0 130.590877-121.671116v-3.902395a609.191807 609.191807 0 0 0-119.580547-336.024125z" p-id="3587"></path><path d="M314.790522 534.38874a302.296278 302.296278 0 0 0 394.420685 0 314.839692 314.839692 0 0 0 25.086828-24.111229c3.902395-4.320509 7.66542-8.501647 11.289073-12.961528a303.550619 303.550619 0 1 0-430.796586 37.072757zM511.722122 108.191406a12.264671 12.264671 0 1 1-12.404043 12.264671 12.264671 12.264671 0 0 1 12.404043-12.264671z m-153.308393 193.447318A154.841477 154.841477 0 1 1 531.791585 475.295323a155.12022 155.12022 0 0 1-173.656599-173.656599z" p-id="3588"></path><path d="M526.077363 407.142773a86.688928 86.688928 0 0 0 68.152549-59.929645 83.62276 83.62276 0 0 0-3.902395-61.880842 34.424703 34.424703 0 1 1-37.630242-39.58144 83.62276 83.62276 0 0 0-64.668268-6.829192 86.410185 86.410185 0 0 0 38.605841 168.221119z m-39.163326-91.706293a25.504942 25.504942 0 0 1 49.476799 12.682785 25.226199 25.226199 0 0 1-18.397007 18.397007 25.644313 25.644313 0 0 1-31.079792-31.079792z" p-id="3589"></path></svg>