<?xml version="1.0" standalone="no"?><!DOCTYPE svg PUBLIC "-//W3C//DTD SVG 1.1//EN" "http://www.w3.org/Graphics/SVG/1.1/DTD/svg11.dtd"><svg t="1770215205247" class="icon" viewBox="0 0 1024 1024" version="1.1" xmlns="http://www.w3.org/2000/svg" p-id="8758" xmlns:xlink="http://www.w3.org/1999/xlink" width="200" height="200"><path d="M256.32 347.488a31.936 31.936 0 0 1 10.88-19.808l94.08-94.08a32 32 0 0 1 45.12 45.12L365.12 320H512a32 32 0 1 1 0 64h-146.88l41.28 41.28a32 32 0 1 1-45.12 45.44l-96-96a31.968 31.968 0 0 1-8.96-27.232zM736 800H288a32 32 0 0 1-32-32v-192a32 32 0 0 1 64 0v160h384V288h-64a32 32 0 1 1 0-64h96a32 32 0 0 1 32 32v512a32 32 0 0 1-32 32z" fill="#202425" p-id="8759"></path></svg>