<?xml version="1.0" standalone="no"?><!DOCTYPE svg PUBLIC "-//W3C//DTD SVG 1.1//EN" "http://www.w3.org/Graphics/SVG/1.1/DTD/svg11.dtd"><svg t="1769397042794" class="icon" viewBox="0 0 1024 1024" version="1.1" xmlns="http://www.w3.org/2000/svg" p-id="4680" xmlns:xlink="http://www.w3.org/1999/xlink" width="200" height="200"><path d="M378.368 512m-58.88 0a58.88 58.88 0 1 0 117.76 0 58.88 58.88 0 1 0-117.76 0Z" p-id="4681"></path><path d="M977.408 242.176c-6.656-9.728-19.968-11.776-29.696-5.12l-222.208 155.648v-179.2c0-23.552-18.944-42.496-42.496-42.496H85.504c-23.552 0-42.496 18.944-42.496 42.496v597.504c0 23.552 18.944 42.496 42.496 42.496h597.504c23.552 0 42.496-18.944 42.496-42.496v-179.2l222.208 155.648c3.584 2.56 7.68 4.096 12.288 4.096 11.776 0 21.504-9.728 21.504-21.504V254.464c0-4.608-1.536-8.704-4.096-12.288z m-452.096 400.896c-22.016-8.704-47.104-6.656-68.096 5.12-20.48 11.776-34.816 32.768-38.4 56.32-26.624 5.632-53.76 5.632-80.384 0-3.584-23.552-17.92-44.544-38.4-56.32-20.48-11.776-45.568-13.824-68.096-5.12-17.92-20.48-31.744-44.032-40.448-69.632 18.432-14.848 29.696-37.376 29.696-61.44s-10.752-46.592-29.696-61.44c8.704-25.6 22.016-49.664 40.448-69.632 22.016 8.704 47.104 6.656 68.096-5.12 20.48-11.776 34.816-32.768 38.4-56.32 26.624-5.632 53.76-5.632 80.384 0 3.584 23.552 17.92 44.544 38.4 56.32 20.48 11.776 45.568 13.824 68.096 5.12 17.92 20.48 31.744 44.032 40.448 69.632-18.432 14.848-29.696 37.376-29.696 61.44s10.752 46.592 29.696 61.44c-8.704 25.6-22.528 49.664-40.448 69.632z" p-id="4682"></path></svg>