<?xml version="1.0" standalone="no"?><!DOCTYPE svg PUBLIC "-//W3C//DTD SVG 1.1//EN" "http://www.w3.org/Graphics/SVG/1.1/DTD/svg11.dtd"><svg t="1769333568898" class="icon" viewBox="0 0 1024 1024" version="1.1" xmlns="http://www.w3.org/2000/svg" p-id="4970" xmlns:xlink="http://www.w3.org/1999/xlink" width="200" height="200"><path d="M352 96A32 32 0 0 1 384 128v96A160 160 0 0 1 224 384H128a32 32 0 0 1 0-64h96A96 96 0 0 0 320 224V128a32 32 0 0 1 32-32z m320 0a32 32 0 0 1 32 32v96A96 96 0 0 0 800 320H896a32 32 0 0 1 0 64h-96A160 160 0 0 1 640 224V128a32 32 0 0 1 32-32z m-576 576A32 32 0 0 1 128 640h96A160 160 0 0 1 384 800V896a32 32 0 0 1-64 0v-96A96 96 0 0 0 224 704H128a32 32 0 0 1-32-32z m704 32a96 96 0 0 0-96 96V896a32 32 0 0 1-64 0v-96a160 160 0 0 1 160-160H896a32 32 0 0 1 0 64h-96z" fill="#8A92A6" p-id="4971"></path></svg>