<?xml version="1.0" standalone="no"?><!DOCTYPE svg PUBLIC "-//W3C//DTD SVG 1.1//EN" "http://www.w3.org/Graphics/SVG/1.1/DTD/svg11.dtd"><svg t="1769396240594" class="icon" viewBox="0 0 1024 1024" version="1.1" xmlns="http://www.w3.org/2000/svg" p-id="2518" xmlns:xlink="http://www.w3.org/1999/xlink" width="200" height="200"><path d="M655.36 760.685714h-438.857143C160.914286 760.685714 117.028571 716.8 117.028571 661.211429V380.342857c0-55.588571 43.885714-99.474286 99.474286-99.474286h438.857143c55.588571 0 99.474286 43.885714 99.474286 99.474286v78.994286c0 11.702857-11.702857 23.405714-23.405715 23.405714s-23.405714-11.702857-23.405714-23.405714V380.342857c0-29.257143-23.405714-52.662857-52.662857-52.662857h-438.857143c-29.257143 0-52.662857 23.405714-52.662857 52.662857v280.868572c0 29.257143 23.405714 52.662857 52.662857 52.662857h438.857143c29.257143 0 52.662857-23.405714 52.662857-52.662857v-84.845715c0-11.702857 11.702857-23.405714 23.405714-23.405714s23.405714 11.702857 23.405715 23.405714v84.845715c0 55.588571-43.885714 99.474286-99.474286 99.474285z" fill="#3271B0" p-id="2519"></path><path d="M898.194286 690.468571c-5.851429 0-8.777143-2.925714-11.702857-2.925714l-169.691429-96.548571c-11.702857-5.851429-14.628571-20.48-8.777143-29.257143 5.851429-11.702857 20.48-14.628571 29.257143-8.777143l134.582857 76.068571V409.6l-134.582857 78.994286c-11.702857 5.851429-23.405714 2.925714-29.257143-8.777143-5.851429-11.702857-2.925714-23.405714 8.777143-29.257143l169.691429-99.474286c8.777143-5.851429 14.628571-5.851429 23.405714 0 8.777143 5.851429 11.702857 11.702857 11.702857 20.48v298.422857c0 8.777143-5.851429 14.628571-11.702857 20.48-2.925714-2.925714-5.851429 0-11.702857 0z" fill="#3271B0" p-id="2520"></path><path d="M397.897143 664.137143c-5.851429 0-11.702857-2.925714-17.554286-5.851429-8.777143-8.777143-8.777143-23.405714 0-32.182857l108.251429-108.251428-108.251429-105.325715c-8.777143-8.777143-8.777143-23.405714 0-32.182857 8.777143-8.777143 23.405714-8.777143 32.182857 0l122.88 122.88c5.851429 5.851429 5.851429 11.702857 5.851429 17.554286 0 5.851429-2.925714 11.702857-5.851429 17.554286l-122.88 122.88c-2.925714 2.925714-8.777143 2.925714-14.628571 2.925714z" fill="#D71C19" p-id="2521"></path></svg>